<svg preserveAspectRatio="none" width="100%" height="100%" overflow="visible" style="display: block;" viewBox="0 0 161 99" fill="none" xmlns="http://www.w3.org/2000/svg">
<g id="Lager_2" clip-path="url(#clip0_0_4)">
<path id="Vector" d="M87.5302 0L69.9933 30.9227L48.9798 67.9984H31.5202L52.4563 30.9227H69.9933L52.4563 0H27.9664L0 49.5394L27.9664 99H73.4698L112.02 30.9227H129.48L108.466 67.9984H90.9295L108.466 99H132.956L161 49.5394L132.956 0H87.5302Z" fill="var(--fill-0, white)"/>
<path id="Vector_2" d="M157.292 5.6008L155.438 0H153.661V7.25737H154.897V1.57769L156.674 7.25737H157.91L159.764 1.57769V7.25737H161V0H159.146L157.292 5.6008Z" fill="var(--fill-0, white)"/>
<path id="Vector_3" d="M150.107 7.25737V1.18327H152.347V0H146.708V1.18327H148.794V7.25737H150.107Z" fill="var(--fill-0, white)"/>
</g>
<defs>
<clipPath id="clip0_0_4">
<rect width="161" height="99" fill="white"/>
</clipPath>
</defs>
</svg>
